<svg width="19" height="19" viewBox="0 0 19 19" fill="none" xmlns="http://www.w3.org/2000/svg">
<g clip-path="url(#clip0_3026_7193)">
<path d="M18.4918 9.67352C18.4918 8.91878 18.4306 8.36802 18.298 7.79688H9.67969V11.2034H14.7385C14.6365 12.0499 14.0858 13.3248 12.8618 14.1815L12.8447 14.2956L15.5696 16.4066L15.7584 16.4254C17.4923 14.8241 18.4918 12.4681 18.4918 9.67352Z" fill="#4285F4"/>
<path d="M9.67969 18.649C12.1581 18.649 14.2387 17.833 15.7584 16.4256L12.8618 14.1817C12.0867 14.7222 11.0464 15.0996 9.67969 15.0996C7.25229 15.0996 5.19206 13.4984 4.45765 11.2852L4.35 11.2943L1.51655 13.4871L1.47949 13.5901C2.98896 16.5887 6.08953 18.649 9.67969 18.649Z" fill="#34A853"/>
<path d="M4.45775 11.2853C4.26396 10.7142 4.15182 10.1022 4.15182 9.46986C4.15182 8.83747 4.26396 8.22554 4.44755 7.65439L4.44242 7.53275L1.57346 5.30469L1.47959 5.34934C0.857465 6.59366 0.500488 7.99098 0.500488 9.46986C0.500488 10.9487 0.857465 12.346 1.47959 13.5903L4.45775 11.2853Z" fill="#FBBC05"/>
<path d="M9.67969 3.83837C11.4033 3.83837 12.566 4.58291 13.229 5.2051L15.8196 2.67568C14.2286 1.1968 12.1581 0.289062 9.67969 0.289062C6.08953 0.289062 2.98896 2.34929 1.47949 5.34784L4.44745 7.65289C5.19206 5.43966 7.25229 3.83837 9.67969 3.83837Z" fill="#0E68DC"/>
</g>
<defs>
<clipPath id="clip0_3026_7193">
<rect width="18" height="18.4219" fill="white" transform="translate(0.500488 0.289062)"/>
</clipPath>
</defs>
</svg>
